HIERARCHY
ROOT hip
{
  OFFSET 0 0 0
  CHANNELS 6 Xposition Yposition Zposition Zrotation Yrotation Xrotation
  JOINT abdomen
  {
    OFFSET 0 20.6881 -0.73152
    CHANNELS 3 Zrotation Xrotation Yrotation
    JOINT chest
    {
      OFFSET 0 11.7043 -0.48768
      CHANNELS 3 Zrotation Xrotation Yrotation
      JOINT neck
      {
        OFFSET 0 22.1894 -2.19456
        CHANNELS 3 Zrotation Xrotation Yrotation
        JOINT head
        {
          OFFSET -0.24384 7.07133 1.2192
          CHANNELS 3 Zrotation Xrotation Yrotation
          JOINT leftEye
          {
            OFFSET 4.14528 8.04674 8.04672
            CHANNELS 3 Zrotation Xrotation Yrotation
            End Site
            {
              OFFSET 1 0 0
            }
          }
          JOINT rightEye
          {
            OFFSET -3.6576 8.04674 8.04672
            CHANNELS 3 Zrotation Xrotation Yrotation
            End Site
            {
              OFFSET 1 0 0
            }
          }
        }
      }
      JOINT rCollar
      {
        OFFSET -2.68224 19.2634 -4.8768
        CHANNELS 3 Zrotation Xrotation Yrotation
        JOINT rShldr
        {
          OFFSET -8.77824 -1.95073 1.46304
          CHANNELS 3 Zrotation Xrotation Yrotation
          JOINT rForeArm
          {
            OFFSET -28.1742 -1.7115 0.48768
            CHANNELS 3 Zrotation Xrotation Yrotation
            JOINT rHand
            {
              OFFSET -22.5879 0.773209 7.07136
              CHANNELS 3 Zrotation Xrotation Yrotation
              JOINT rThumb1
              {
                OFFSET -1.2192 -0.487915 3.41376
                CHANNELS 3 Zrotation Xrotation Yrotation
                JOINT rThumb2
                {
                  OFFSET -3.37035 -0.52449 3.41376
                  CHANNELS 3 Zrotation Xrotation Yrotation
                  End Site
                  {
                    OFFSET -1.78271 -1.18214 1.43049
                  }
                }
              }
              JOINT rIndex1
              {
                OFFSET -7.75947 0.938293 5.60832
                CHANNELS 3 Zrotation Xrotation Yrotation
                JOINT rIndex2
                {
                  OFFSET -2.54057 -0.884171 1.56538
                  CHANNELS 3 Zrotation Xrotation Yrotation
                  End Site
                  {
                    OFFSET -1.62519 -0.234802 1.16502
                  }
                }
              }
              JOINT rMid1
              {
                OFFSET -8.24714 1.18213 3.41376
                CHANNELS 3 Zrotation Xrotation Yrotation
                JOINT rMid2
                {
                  OFFSET -3.10165 -0.590103 1.0647
                  CHANNELS 3 Zrotation Xrotation Yrotation
                  End Site
                  {
                    OFFSET -2.48547 -0.328903 0.83742
                  }
                }
              }
              JOINT rRing1
              {
                OFFSET -8.82822 0.546677 1.51678
                CHANNELS 3 Zrotation Xrotation Yrotation
                JOINT rRing2
                {
                  OFFSET -2.60934 -0.819778 -0.0198488
                  CHANNELS 3 Zrotation Xrotation Yrotation
                  End Site
                  {
                    OFFSET -2.33842 -0.294052 0.168128
                  }
                }
              }
              JOINT rPinky1
              {
                OFFSET -8.27202 -0.0477905 -0.4584
                CHANNELS 3 Zrotation Xrotation Yrotation
                JOINT rPinky2
                {
                  OFFSET -1.82734 -0.647385 -0.700984
                  CHANNELS 3 Zrotation Xrotation Yrotation
                  End Site
                  {
                    OFFSET -1.69225 -0.51767 -0.607171
                  }
                }
              }
            }
          }
        }
      }
      JOINT lCollar
      {
        OFFSET 2.68224 19.2634 -4.8768
        CHANNELS 3 Zrotation Xrotation Yrotation
        JOINT lShldr
        {
          OFFSET 8.77824 -1.95073 1.46304
          CHANNELS 3 Zrotation Xrotation Yrotation
          JOINT lForeArm
          {
            OFFSET 28.1742 -1.7115 0.48768
            CHANNELS 3 Zrotation Xrotation Yrotation
            JOINT lHand
            {
              OFFSET 22.5879 0.773209 7.07136
              CHANNELS 3 Zrotation Xrotation Yrotation
              JOINT lThumb1
              {
                OFFSET 1.2192 -0.487915 3.41376
                CHANNELS 3 Zrotation Xrotation Yrotation
                JOINT lThumb2
                {
                  OFFSET 3.37035 -0.52449 3.41376
                  CHANNELS 3 Zrotation Xrotation Yrotation
                  End Site
                  {
                    OFFSET 1.78271 -1.18214 1.43049
                  }
                }
              }
              JOINT lIndex1
              {
                OFFSET 7.75947 0.938293 5.60832
                CHANNELS 3 Zrotation Xrotation Yrotation
                JOINT lIndex2
                {
                  OFFSET 2.54057 -0.884171 1.56538
                  CHANNELS 3 Zrotation Xrotation Yrotation
                  End Site
                  {
                    OFFSET 1.62519 -0.234802 1.16502
                  }
                }
              }
              JOINT lMid1
              {
                OFFSET 8.24714 1.18213 3.41376
                CHANNELS 3 Zrotation Xrotation Yrotation
                JOINT lMid2
                {
                  OFFSET 3.10165 -0.590103 1.0647
                  CHANNELS 3 Zrotation Xrotation Yrotation
                  End Site
                  {
                    OFFSET 2.48547 -0.328903 0.83742
                  }
                }
              }
              JOINT lRing1
              {
                OFFSET 8.82822 0.546677 1.51678
                CHANNELS 3 Zrotation Xrotation Yrotation
                JOINT lRing2
                {
                  OFFSET 2.60934 -0.819778 -0.0198488
                  CHANNELS 3 Zrotation Xrotation Yrotation
                  End Site
                  {
                    OFFSET 2.33842 -0.294052 0.168128
                  }
                }
              }
              JOINT lPinky1
              {
                OFFSET 8.27202 -0.0477905 -0.4584
                CHANNELS 3 Zrotation Xrotation Yrotation
                JOINT lPinky2
                {
                  OFFSET 1.82734 -0.647385 -0.700984
                  CHANNELS 3 Zrotation Xrotation Yrotation
                  End Site
                  {
                    OFFSET 1.69225 -0.51767 -0.607171
                  }
                }
              }
            }
          }
        }
      }
    }
  }
  JOINT rButtock
  {
    OFFSET -8.77824 4.35084 1.2192
    CHANNELS 3 Zrotation Xrotation Yrotation
    JOINT rThigh
    {
      OFFSET 0 -1.70687 -2.19456
      CHANNELS 3 Zrotation Xrotation Yrotation
      JOINT rShin
      {
        OFFSET 0 -36.8199 0.73152
        CHANNELS 3 Zrotation Xrotation Yrotation
        JOINT rFoot
        {
          OFFSET 0.73152 -45.1104 -5.12064
          CHANNELS 3 Zrotation Xrotation Yrotation
          End Site
          {
            OFFSET -1.1221 -3.69964 12.103
          }
        }
      }
    }
  }
  JOINT lButtock
  {
    OFFSET 8.77824 4.35084 1.2192
    CHANNELS 3 Zrotation Xrotation Yrotation
    JOINT lThigh
    {
      OFFSET 0 -1.70687 -2.19456
      CHANNELS 3 Zrotation Xrotation Yrotation
      JOINT lShin
      {
        OFFSET 0 -36.8199 0.73152
        CHANNELS 3 Zrotation Xrotation Yrotation
        JOINT lFoot
        {
          OFFSET -0.73152 -45.1104 -5.12064
          CHANNELS 3 Zrotation Xrotation Yrotation
          End Site
          {
            OFFSET 1.1221 -3.69964 12.103
          }
        }
      }
    }
  }
}
MOTION
Frames:	4
Frame Time:	0.03333
-1.3384340513587667 19.23441375940287 15.04164066568801 -1.645219087600708 -6.498288154602051 11.44384765625 -1.707723617553711 14.471888542175293 4.66389274597168 1.5372029542922974 -10.11978816986084 2.170626401901245 -6.317185878753662 13.098241806030273 -5.190576076507568 7.784282207489014 -21.53464698791504 -7.549678802490234 0.9343532919883728 0.3280799984931946 0.581749439239502 0.38194090127944946 -0.45140403509140015 0.20594125986099243 -0.7382737398147583 1.0835411548614502 -0.8728865385055542 43.220218658447266 44.33460235595703 19.11594009399414 -27.00737190246582 -26.098817825317383 66.48979187011719 -2.1448535919189453 -8.402789115905762 -2.3731205463409424 -0.2912011742591858 0.028601014986634254 0.4197232723236084 0.678414523601532 -0.16061794757843018 0.8350421190261841 -0.4001210331916809 -0.21406607329845428 -0.20594049990177155 6.375296592712402 5.389167785644531 0.9710965156555176 0.2333506941795349 -0.9075803160667419 -0.5058628916740417 3.249237060546875 2.284249782562256 -0.870480477809906 0.9529463648796082 -0.017355768010020256 -1.3429707288742065 9.653887748718262 1.1999037265777588 0.5752595663070679 0.19855853915214539 -0.6417090892791748 0.9402838349342346 2.1782538890838623 -0.8229686617851257 0.185333251953125 -0.641746997833252 -0.6740913987159729 0.03347913920879364 -56.2738151550293 40.14298629760742 -23.12089729309082 26.202484130859375 -24.603191375732422 -65.72931671142578 1.781374454498291 -19.053630828857422 2.3883862495422363 0.4707958698272705 0.16561347246170044 -0.37069112062454224 -1.5152912139892578 0.11807218939065933 0.3559592366218567 0.12352938205003738 -0.4245348274707794 -0.2891335189342499 -7.049854755401611 4.772982120513916 -0.4634518027305603 -1.1122992038726807 -0.07441550493240356 0.2834656536579132 -3.4378459453582764 0.6117823719978333 -0.14909584820270538 0.2665311098098755 1.7719204425811768 -0.4299681782722473 -9.126317977905273 0.7837542295455933 0.925194263458252 0.030218299478292465 -1.593639850616455 -2.2421865463256836 -3.2397866249084473 -0.659841775894165 0.062981516122818 -0.653357982635498 -0.6726164221763611 -1.2163832187652588 -25.713172912597656 -42.421295166015625 -17.0606746673584 -1.961533546447754 66.04279327392578 3.7121458053588867 -2.815685272216797 -14.28394889831543 -8.532684326171875 -2.716158151626587 -0.23315730690956116 -1.72514808177948 29.964147567749023 -43.691139221191406 20.179059982299805 1.7568784952163696 65.79828643798828 -4.6189680099487305 5.564929962158203 -11.548776626586914 13.71293830871582
-1.337891905093397 19.23419519334943 15.039883599524025 -1.6444952487945557 -6.498893737792969 11.446443557739258 -1.7094783782958984 14.470858573913574 4.666619300842285 1.5374934673309326 -10.119771957397461 2.168508768081665 -6.31553840637207 13.098797798156738 -5.190370559692383 7.785345554351807 -21.536420822143555 -7.5490593910217285 0.9352357983589172 0.3259706199169159 0.5798448920249939 0.38260361552238464 -0.4499925374984741 0.20561183989048004 -0.7368428111076355 1.0852279663085938 -0.8724537491798401 43.22066879272461 44.334205627441406 19.116243362426758 -27.00811004638672 -26.097339630126953 66.48787689208984 -2.146667003631592 -8.403026580810547 -2.3734681606292725 -0.2942877411842346 0.028869174420833588 0.42014503479003906 0.6773441433906555 -0.16126133501529694 0.835911214351654 -0.39916905760765076 -0.21482409536838531 -0.20636633038520813 6.375485420227051 5.3897705078125 0.9709447622299194 0.23230555653572083 -0.9083657264709473 -0.5060596466064453 3.2459990978240967 2.2834198474884033 -0.8702988624572754 0.9524425864219666 -0.0177609920501709 -1.344818353652954 9.65530776977539 1.1993496417999268 0.5762643814086914 0.19844375550746918 -0.6429640650749207 0.9413263201713562 2.1793651580810547 -0.8217663168907166 0.187510147690773 -0.6416066884994507 -0.6725733876228333 0.0353286936879158 -56.27171325683594 40.14324951171875 -23.121667861938477 26.201343536376953 -24.605789184570312 -65.72978210449219 1.783959150314331 -19.053600311279297 2.390105962753296 0.4707127511501312 0.1644117385149002 -0.3709467947483063 -1.515949010848999 0.11965537816286087 0.3544500768184662 0.12349767237901688 -0.4231782853603363 -0.28947168588638306 -7.049552917480469 4.772369861602783 -0.4612008333206177 -1.1110548973083496 -0.07594753056764603 0.2847166657447815 -3.438319444656372 0.6101405024528503 -0.14987808465957642 0.26537129282951355 1.7715133428573608 -0.43009835481643677 -9.126245498657227 0.7852112054824829 0.9234417676925659 0.03092050552368164 -1.5925654172897339 -2.242347002029419 -3.238250970840454 -0.6606894731521606 0.06217368319630623 -0.6559252738952637 -0.6741257905960083 -1.217028021812439 -25.712169647216797 -42.42255783081055 -17.06068229675293 -1.961086630821228 66.04228210449219 3.711292266845703 -2.813650608062744 -14.283710479736328 -8.531634330749512 -2.7167577743530273 -0.23333264887332916 -1.7230767011642456 29.964832305908203 -43.69084167480469 20.182111740112305 1.7572755813598633 65.79756164550781 -4.619630813598633 5.565694332122803 -11.551154136657715 13.71303939819336
-1.3336418198823565 19.237227797340914 15.040981552433104 -1.6492098569869995 -6.503777503967285 11.441617965698242 -1.705427885055542 14.47719669342041 4.663909435272217 1.5402164459228516 -10.112598419189453 2.178262948989868 -6.314177989959717 13.101325988769531 -5.181664943695068 7.782011985778809 -21.529346466064453 -7.5506696701049805 0.9326941967010498 0.3312056064605713 0.5794252753257751 0.3763633966445923 -0.44927313923835754 0.2074720561504364 -0.7415984869003296 1.089215874671936 -0.8768376708030701 43.22138214111328 44.334903717041016 19.12334442138672 -27.0083065032959 -26.103052139282227 66.48489379882812 -2.1429603099823 -8.401520729064941 -2.379101514816284 -0.2943708002567291 0.028340861201286316 0.419925332069397 0.6748625040054321 -0.16130252182483673 0.8328126072883606 -0.4102804958820343 -0.21105830371379852 -0.20976969599723816 6.377840518951416 5.390153408050537 0.9653406143188477 0.2320290207862854 -0.9114760160446167 -0.5032812356948853 3.2499680519104004 2.281095266342163 -0.8668657541275024 0.9565814137458801 -0.014655531384050846 -1.346086025238037 9.651500701904297 1.2012369632720947 0.5850282907485962 0.1958642303943634 -0.6447993516921997 0.9402966499328613 2.177731513977051 -0.8259777426719666 0.18295952677726746 -0.6385617852210999 -0.6790114045143127 0.03513297438621521 -56.278751373291016 40.13850402832031 -23.11438751220703 26.203994750976562 -24.602367401123047 -65.7293472290039 1.7819244861602783 -19.04584503173828 2.382316827774048 0.4738653898239136 0.16490402817726135 -0.3675857484340668 -1.5216697454452515 0.12072517722845078 0.35339921712875366 0.12622642517089844 -0.4339553117752075 -0.2884790897369385 -7.048802852630615 4.768059253692627 -0.4647676944732666 -1.1119959354400635 -0.07033706456422806 0.2796144187450409 -3.4281134605407715 0.6057555079460144 -0.14680145680904388 0.26482537388801575 1.7754569053649902 -0.4276061952114105 -9.125174522399902 0.7847415208816528 0.9209417700767517 0.0287601538002491 -1.5892534255981445 -2.235834836959839 -3.2411954402923584 -0.6616264581680298 0.06294339150190353 -0.6489254236221313 -0.6691526174545288 -1.2130002975463867 -25.709196090698242 -42.425384521484375 -17.057710647583008 -1.9575294256210327 66.04085540771484 3.7097458839416504 -2.817709445953369 -14.284039497375488 -8.538189888000488 -2.718780040740967 -0.23656858503818512 -1.7226917743682861 29.96849250793457 -43.69659423828125 20.180299758911133 1.759271502494812 65.80367279052734 -4.6178741455078125 5.565030574798584 -11.550836563110352 13.711490631103516
-1.333191881170782 19.235006278313367 15.043628250736484 -1.6536598205566406 -6.501828670501709 11.436530113220215 -1.702268362045288 14.48086166381836 4.658613681793213 1.5427892208099365 -10.110270500183105 2.1834521293640137 -6.315528392791748 13.103095054626465 -5.1826491355896 7.778684139251709 -21.522275924682617 -7.55116081237793 0.9306566119194031 0.3345364034175873 0.581903338432312 0.373390257358551 -0.4507248103618622 0.20996664464473724 -0.7453120946884155 1.0889941453933716 -0.8793812394142151 43.219581604003906 44.33318328857422 19.127639770507812 -27.00580406188965 -26.10719871520996 66.48898315429688 -2.138439893722534 -8.402000427246094 -2.3804280757904053 -0.2891891598701477 0.027462568134069443 0.4197428524494171 0.6768449544906616 -0.15814994275569916 0.8310340046882629 -0.4155554473400116 -0.21035103499889374 -0.20927774906158447 6.37659215927124 5.388644695281982 0.9652423858642578 0.23354420065879822 -0.9096155762672424 -0.5022099018096924 3.2555301189422607 2.2834420204162598 -0.8662764430046082 0.9576046466827393 -0.01331133022904396 -1.343736171722412 9.648481369018555 1.2021145820617676 0.584915041923523 0.1959143579006195 -0.6447270512580872 0.9371721148490906 2.174241542816162 -0.8303079009056091 0.18205128610134125 -0.6380089521408081 -0.6831099390983582 0.03349561616778374 -56.28382110595703 40.1368408203125 -23.111894607543945 26.2060489654541 -24.601343154907227 -65.72605895996094 1.7793861627578735 -19.041748046875 2.3774523735046387 0.4751332998275757 0.16502530872821808 -0.3655829429626465 -1.5223063230514526 0.11944862455129623 0.3544448912143707 0.12759867310523987 -0.43735307455062866 -0.29214486479759216 -7.050093173980713 4.768031597137451 -0.4669663906097412 -1.114135503768921 -0.06594640761613846 0.2765386700630188 -3.4244606494903564 0.607577383518219 -0.1439286321401596 0.26649075746536255 1.7796300649642944 -0.42704150080680847 -9.122940063476562 0.7833206653594971 0.9222001433372498 0.028719237074255943 -1.588952898979187 -2.2315127849578857 -3.2441229820251465 -0.6590092182159424 0.06324903666973114 -0.6433024406433105 -0.6665919423103333 -1.210716724395752 -25.710466384887695 -42.425628662109375 -17.059974670410156 -1.957455039024353 66.04063415527344 3.7098021507263184 -2.820338249206543 -14.284720420837402 -8.540868759155273 -2.7189443111419678 -0.23777863383293152 -1.724112629890442 29.96587371826172 -43.70017623901367 20.175357818603516 1.7595316171646118 65.8069076538086 -4.616849422454834 5.563645362854004 -11.547855377197266 13.70840072631836
